<svg width="297" height="37" viewBox="0 0 297 37" fill="none" xmlns="http://www.w3.org/2000/svg">
<path fill-rule="evenodd" clip-rule="evenodd" d="M56.299 0.0853851L54.514 0.139385L52.578 2.25838L50.642 4.37839L50.737 8.21138C50.79 10.3194 50.833 13.1744 50.833 14.5544V17.0644L51.6 17.9714C52.022 18.4704 52.53 19.0654 52.729 19.2944C52.928 19.5244 53.304 19.9924 53.565 20.3364L54.04 20.9614H57.603H61.167L61.166 24.4194C61.165 26.3214 61.117 28.7214 61.057 29.7534L60.949 31.6284H58.233H55.516L55.617 29.6234L55.718 27.6184L53.317 27.6654L50.917 27.7114L50.871 30.1774L50.824 32.6424L52.352 34.3434C53.193 35.2794 54.011 36.1834 54.171 36.3534C54.437 36.6384 54.755 36.6614 58.105 36.6404L61.75 36.6174L63.75 34.6224L65.75 32.6264L65.805 26.0564L65.86 19.4864L64.073 17.6404L62.286 15.7944H59.077C56.306 15.7944 55.855 15.7584 55.768 15.5314C55.712 15.3864 55.667 13.0594 55.667 10.3604V5.45239L58.208 5.49839L60.75 5.54439L60.894 7.42439L61.037 9.30439L63.227 9.25738L65.417 9.21138L65.358 6.79439L65.299 4.37839L63.618 2.29438C62.694 1.14938 61.858 0.156385 61.76 0.0893851C61.59 -0.0286149 60.139 -0.0296149 56.299 0.0853851ZM0.333 2.67338V5.27139L1.633 5.38539L2.933 5.49839L2.925 18.5214L2.917 31.5444L1.458 31.5924L0 31.6414V34.1344V36.6284L4.458 36.6304C6.91 36.6314 9.067 36.6704 9.25 36.7154C9.968 36.8954 10.058 36.6244 10.136 34.0574L10.209 31.6284H8.955C7.432 31.6284 7.527 31.8624 7.711 28.5444C7.854 25.9624 7.876 25.8464 8.412 24.8784C9.416 23.0674 10.486 21.2414 10.629 21.0994C10.77 20.9584 10.842 21.1734 11.904 24.8784C12.475 26.8714 13.599 30.7614 13.777 31.3604C13.864 31.6534 13.8 31.6674 12.873 31.5624C11.643 31.4234 11.672 31.3544 11.669 34.4224L11.667 36.6334L16.458 36.5894L21.25 36.5444L21.296 34.0034L21.342 31.4614H20.111H18.88L17.762 28.0864C16.591 24.5514 15.98 22.8264 15.502 21.7114C15.345 21.3444 14.826 20.0294 14.348 18.7894L13.48 16.5334L14.507 14.3724C15.072 13.1844 15.743 11.7614 15.999 11.2114C16.255 10.6614 16.96 9.17239 17.566 7.90139C18.171 6.63139 18.667 5.52539 18.667 5.44339C18.667 5.26339 18.786 5.24639 20.167 5.22639L21.25 5.21139L21.296 2.77939L21.342 0.346385L19.213 0.238385C18.042 0.178385 15.943 0.129385 14.549 0.128385H12.015L11.916 0.669385C11.862 0.967385 11.839 2.11138 11.867 3.21139L11.917 5.21139L13.042 5.26039C13.66 5.28739 14.167 5.34839 14.167 5.39539C14.167 5.51139 12.154 9.32838 11.961 9.57738C11.876 9.68738 10.882 11.5954 9.752 13.8164L7.698 17.8564L7.631 16.7004C7.595 16.0644 7.547 13.2384 7.525 10.4194L7.484 5.29439H8.726H9.969L10.032 2.83639C10.067 1.48439 10.083 0.356385 10.068 0.329385C10.054 0.302385 7.857 0.234385 5.187 0.177385L0.333 0.0753851V2.67338ZM122.958 0.252385L120.667 0.304385V2.79939V5.29439H121.917C122.803 5.29439 123.168 5.35539 123.172 5.50339C123.22 7.48839 123.098 26.0484 123.021 28.2944L122.917 31.3784L121.917 31.4614L120.917 31.5444L120.833 34.0444C120.781 35.6174 120.812 36.5904 120.917 36.6674C121.116 36.8144 129.525 36.8384 129.903 36.6934C130.125 36.6084 130.164 36.2724 130.147 34.5684C130.117 31.4854 130.148 31.5544 128.764 31.4944L127.613 31.4454L127.717 24.1974C127.774 20.2114 127.874 16.8644 127.938 16.7594C128.2 16.3364 131.411 28.0114 132.257 32.4614C132.423 33.3324 132.682 34.6444 132.834 35.3784L133.109 36.7114H133.673C134.319 36.7114 134.221 36.9674 135.482 31.9614C135.84 30.5404 136.402 28.4404 136.732 27.2944C137.532 24.5124 138.213 21.9044 138.67 19.8784C138.876 18.9614 139.1 18.1064 139.168 17.9784C139.235 17.8504 139.295 20.8324 139.3 24.6034L139.31 31.4614H138.333C137.144 31.4614 137.204 31.3154 137.135 34.3784L137.083 36.7114H141.831C146.399 36.7114 146.581 36.6994 146.641 36.3874C146.675 36.2094 146.65 35.0664 146.585 33.8464L146.466 31.6284H145.422H144.378L144.254 20.8134C144.186 14.8664 144.185 8.97839 144.252 7.73039L144.374 5.46139H145.539H146.704L146.64 3.08639C146.605 1.78039 146.518 0.617385 146.445 0.503385C146.256 0.204385 139.776 0.204385 139.55 0.503385C139.359 0.754385 139.309 0.930385 137.908 6.21139C137.786 6.66939 137.225 8.46938 136.661 10.2114C136.097 11.9534 135.576 13.6034 135.504 13.8784C135.001 15.7864 133.806 19.7224 133.696 19.8324C133.622 19.9054 133.43 19.5334 133.267 19.0054C133.105 18.4774 132.65 16.9944 132.255 15.7114C131.49 13.2264 131.486 13.2114 130.578 9.37838C130.253 8.00338 129.584 5.60339 129.091 4.04439C128.599 2.48639 128.142 1.02439 128.076 0.794385C127.903 0.197385 127.721 0.129385 126.417 0.167385C125.775 0.185385 124.219 0.224385 122.958 0.252385ZM217.9 0.242385C217.799 0.317385 217.672 0.790385 217.617 1.29438C217.473 2.62238 216.719 7.98038 216.252 11.0034C216.113 11.8964 215.893 13.3214 215.762 14.1694C215.515 15.7724 213.79 26.1904 213.506 27.7944C213.417 28.2984 213.228 29.4614 213.085 30.3784C212.942 31.2944 212.677 32.9354 212.496 34.0244C212.315 35.1134 212.167 36.1334 212.167 36.2904C212.167 36.5394 212.429 36.5914 214.158 36.6844C216.715 36.8214 216.57 36.9094 216.8 35.0804C216.907 34.2354 217.113 32.7194 217.259 31.7114C217.405 30.7034 217.575 29.5034 217.637 29.0444L217.75 28.2114L220.393 28.0644C223.535 27.8904 223.222 27.6254 223.479 30.6774C223.796 34.4504 224.04 36.5384 224.175 36.6284C224.243 36.6734 225.366 36.6884 226.671 36.6604L229.041 36.6104L228.948 35.9944C228.896 35.6554 228.618 34.1784 228.33 32.7114C228.042 31.2444 227.703 29.4074 227.578 28.6284C227.453 27.8484 227.236 26.4984 227.096 25.6284C226.547 22.2084 226.341 20.9904 226.083 19.6284C225.935 18.8484 225.709 17.6114 225.581 16.8784C225.453 16.1444 225.225 14.9074 225.076 14.1284C224.926 13.3484 224.703 12.1494 224.58 11.4614C224.457 10.7744 224.206 9.38638 224.022 8.37838C223.839 7.36938 223.53 5.49439 223.336 4.21139C223.142 2.92839 222.905 1.52139 222.808 1.08639L222.633 0.294385H221.842C221.407 0.294385 220.383 0.252385 219.567 0.201385C218.751 0.149385 218.001 0.168385 217.9 0.242385ZM24.505 18.4504C24.498 31.5254 24.547 36.6374 24.68 36.7194C24.781 36.7824 25.873 36.7794 27.106 36.7134L29.349 36.5934L29.232 29.7774L29.114 22.9614H31.974H34.833L34.836 29.4194C34.838 37.5074 34.555 36.6284 37.162 36.6284H39.285L39.202 29.8364L39.119 23.0444L38.688 22.4614C38.452 22.1404 38.012 21.5834 37.712 21.2234C37.018 20.3894 36.985 20.5284 38.247 18.9774L39.327 17.6504L39.434 11.3474L39.541 5.04439L38.728 4.04439C38.281 3.49439 37.402 2.42638 36.776 1.66938L35.637 0.294385H30.076H24.515L24.505 18.4504ZM42.825 0.336385C42.82 0.359385 42.785 8.10339 42.746 17.5444C42.708 26.9864 42.635 35.0024 42.584 35.3584C42.399 36.6504 42.383 36.6424 45.138 36.5904L47.583 36.5444L47.594 18.4194L47.605 0.294385H45.219C43.907 0.294385 42.829 0.313385 42.825 0.336385ZM84.643 0.336385C84.624 0.371385 84.511 17.9754 84.437 32.5444L84.417 36.5444H86.917H89.417V18.4194V0.294385H87.042C85.735 0.294385 84.656 0.313385 84.643 0.336385ZM93.167 13.6844C93.167 21.0484 93.117 29.2354 93.056 31.8764L92.945 36.6794L95.4 36.5874C96.75 36.5364 97.906 36.4434 97.969 36.3804C98.032 36.3174 98.056 31.6404 98.023 25.9884C97.989 20.3364 98.001 15.7484 98.048 15.7944C98.163 15.9044 100.339 22.4004 101.009 24.6284C102.637 30.0484 103.271 32.1024 103.918 34.0444C104.131 34.6864 104.39 35.5304 104.493 35.9194L104.68 36.6284H107.153H109.627L109.74 28.8364C109.895 18.1594 109.924 13.3884 109.875 6.41939L109.833 0.461385H107.437H105.04L105.126 6.25339C105.23 13.2274 105.038 21.9154 104.794 21.2944C104.617 20.8454 104.474 20.3674 103.667 17.5444C103.378 16.5364 103.045 15.3734 102.925 14.9614C102.805 14.5494 102.133 12.6854 101.433 10.8204C100.202 7.54438 99.598 5.76138 98.512 2.19238L98 0.506385L97.227 0.400385C96.801 0.342385 95.714 0.294385 94.81 0.294385H93.167V13.6844ZM153.229 0.398385C153.125 0.440385 152.178 1.34639 151.124 2.41139L149.208 4.34739L149.189 18.3624L149.171 32.3784L151.097 34.5034L153.024 36.6284H156.513H160.002L161.922 34.7094L163.843 32.7904L163.741 29.8344C163.685 28.2084 163.61 26.7844 163.575 26.6694C163.527 26.5164 162.914 26.4614 161.255 26.4614H159V28.9614V31.4614H156.417H153.833V19.1514C153.833 12.3804 153.881 6.49339 153.939 6.06839L154.045 5.29439H156.523H159V7.77339V10.2534L159.521 10.3574C159.807 10.4144 160.857 10.4614 161.854 10.4614H163.667L163.66 7.25339L163.653 4.04439L161.843 2.16938L160.033 0.294385L156.725 0.307385C154.905 0.315385 153.332 0.355385 153.229 0.398385ZM165.5 2.78438C165.5 5.62738 165.449 5.53139 166.922 5.47739C168.144 5.43339 168.055 5.29839 168.416 7.74639C168.652 9.34939 168.852 10.6224 169.746 16.2114C170.596 21.5264 171.028 24.1394 171.163 24.7944C171.647 27.1344 172.236 30.6354 172.242 31.2114L172.25 31.8784L171.231 31.9274L170.213 31.9764L170.106 32.9934C170.048 33.5524 170 34.5994 170 35.3194V36.6284H174.25H178.5V34.3784V32.1284H177.833C177.005 32.1284 177.007 32.2054 177.743 29.2184C178.06 27.9314 178.586 25.7934 178.911 24.4684C179.469 22.1974 179.833 21.2534 179.833 22.0814C179.833 22.2754 179.938 22.8714 180.065 23.4064C180.193 23.9404 180.416 24.9404 180.561 25.6284C180.705 26.3154 181.051 27.9504 181.329 29.2614C181.969 32.2844 181.978 32.1284 181.162 32.1284H180.491L180.537 34.4194L180.583 36.7114L184.833 36.6524C187.171 36.6194 189.093 36.5824 189.105 36.5694C189.117 36.5554 189.155 35.5344 189.189 34.2984L189.25 32.0524L187.934 32.1064L186.619 32.1594L186.739 31.6024C186.804 31.2954 186.961 30.4824 187.088 29.7944C187.429 27.9314 188.126 24.0814 188.431 22.3784C188.578 21.5534 188.8 20.3154 188.923 19.6284C189.046 18.9404 189.259 17.7404 189.396 16.9614C189.853 14.3614 190.184 12.5554 190.418 11.3784C190.546 10.7364 190.854 9.15439 191.103 7.86139L191.556 5.51239L192.57 5.36139L193.583 5.21139L193.629 2.75339L193.676 0.294385H188.921H184.167V2.79438V5.29439H185.333C186.351 5.29439 186.5 5.33339 186.5 5.59839C186.5 6.09039 185.424 13.0094 184.746 16.8784C184.601 17.7034 184.38 19.0294 184.255 19.8264C183.977 21.5994 183.762 22.0864 183.617 21.2714C183.562 20.9634 183.399 20.1864 183.253 19.5444C182.645 16.8554 181.903 13.2964 181.342 10.3784C181.236 9.82838 180.966 8.46939 180.742 7.35939C180.517 6.24839 180.333 5.28739 180.333 5.22339C180.333 5.15939 180.095 5.13039 179.805 5.15939C179.136 5.22539 179.256 4.86038 177.85 11.1284C177.573 12.3654 176.922 15.2904 176.405 17.6284C175.887 19.9654 175.442 21.9024 175.415 21.9314C175.351 22.0004 175.059 20.6114 174.913 19.5444C174.812 18.8094 174.181 14.9024 173.661 11.7944C172.533 5.05838 172.508 5.66739 173.917 5.59539L174.917 5.54439L174.963 2.91938L175.008 0.294385H170.254H165.5V2.78438ZM197.561 0.418385L196.04 0.473385L195.938 5.34239C195.739 14.8494 195.653 30.5894 195.784 33.5444L195.917 36.5444H198.333H200.75L200.793 28.8614L200.837 21.1774L202.21 21.0704C202.965 21.0114 203.977 20.9634 204.458 20.9624L205.333 20.9614L205.373 24.0864C205.395 25.8054 205.384 29.3264 205.349 31.9104L205.286 36.6104L207.659 36.6604C208.964 36.6884 210.068 36.6544 210.111 36.5844C210.211 36.4224 209.992 0.586385 209.89 0.419385C209.848 0.351385 208.816 0.294385 207.596 0.294385H205.378L205.302 7.95939C205.26 12.1744 205.194 15.6544 205.155 15.6924C205.116 15.7294 204.183 15.7864 203.083 15.8194L201.083 15.8784L200.996 8.12838C200.948 3.86538 200.891 0.359385 200.871 0.336385C200.85 0.313385 200.44 0.310385 199.958 0.329385C199.477 0.348385 198.398 0.388385 197.561 0.418385ZM231.329 8.33638C231.326 12.7594 231.287 17.1654 231.241 18.1284C231.196 19.0904 231.216 23.6654 231.287 28.2944L231.417 36.7114L232.5 36.7564C233.096 36.7804 234.143 36.7434 234.826 36.6724L236.069 36.5444L236.019 29.7534L235.97 22.9614H238.711H241.451L241.572 29.6694C241.638 33.3594 241.749 36.4364 241.818 36.5084C241.887 36.5804 242.875 36.6174 244.014 36.5914L246.083 36.5444L246.062 35.7944C246.05 35.3824 246.009 32.3434 245.97 29.0414L245.899 23.0374L244.949 21.7764C243.798 20.2464 243.789 20.5274 245.042 18.9944L246.083 17.7194L246.191 14.7984C246.25 13.1924 246.307 10.3374 246.316 8.45438L246.333 5.03139L244.381 2.66338L242.429 0.294385H236.881H231.333L231.329 8.33638ZM264.503 0.419385C264.525 1.27839 264.323 35.2714 264.292 35.8784L264.25 36.7114L271.167 36.7514C274.971 36.7734 278.174 36.7334 278.284 36.6634C278.422 36.5744 278.501 35.7754 278.534 34.1224L278.583 31.7114L273.873 31.6674L269.162 31.6224L269.206 26.2504L269.25 20.8784L272.917 20.7944L276.583 20.7114V18.3784V16.0444L273.122 15.9444C271.218 15.8894 269.612 15.7954 269.552 15.7364C269.493 15.6764 269.41 13.3034 269.366 10.4614L269.288 5.29439H273.894H278.5L278.499 4.41939C278.499 3.93839 278.45 2.81338 278.391 1.91938L278.283 0.294385H271.392C267.601 0.294385 264.501 0.351385 264.503 0.419385ZM281.729 18.5034L281.75 36.7114L282.25 36.7694C282.525 36.8014 283.597 36.7744 284.633 36.7104L286.516 36.5944L286.398 29.7774L286.281 22.9614H289.14H292V29.5314C292 33.1444 292.046 36.2194 292.101 36.3644C292.186 36.5854 292.544 36.6284 294.34 36.6284H296.477L296.387 29.8364L296.296 23.0444L295.306 21.7504C294.708 20.9684 294.365 20.3754 294.438 20.2504C294.505 20.1374 294.995 19.5144 295.528 18.8664L296.496 17.6874L296.608 11.4024L296.721 5.11639L296.328 4.58039C296.112 4.28539 295.23 3.20138 294.367 2.16938L292.8 0.294385H287.253H281.707L281.729 18.5034ZM67.5 2.85539V5.24939L68.273 5.35539C68.699 5.41339 69.775 5.46139 70.664 5.46139H72.282L72.388 7.41939C72.446 8.49639 72.445 15.5094 72.386 23.0034L72.278 36.6284H74.741H77.203L77.083 32.3364C77.01 29.6934 77.044 25.6444 77.173 21.7944C77.289 18.3574 77.391 13.2574 77.4 10.4614L77.417 5.37839L79.958 5.33239L82.5 5.28639V2.87338V0.461385H75H67.5V2.85539ZM247.833 2.78438C247.833 5.54339 247.61 5.31539 250.412 5.42239L252.619 5.50639L252.728 7.27539C252.788 8.24839 252.787 15.2514 252.725 22.8364L252.612 36.6284H255.081H257.549L257.435 32.5034C257.367 30.0854 257.402 25.9634 257.519 22.5444C257.629 19.3364 257.726 14.1614 257.734 11.0444L257.75 5.37839L260.292 5.33239L262.833 5.28639V2.87338V0.461385H255.333H247.833V2.78438ZM34.583 11.7114V17.7114L31.958 17.7574L29.333 17.8034V11.8264C29.333 8.53938 29.385 5.79839 29.449 5.73539C29.512 5.67139 30.693 5.64039 32.074 5.66539L34.583 5.71139V11.7114ZM241.468 10.2114C241.496 12.6864 241.471 15.4054 241.411 16.2534L241.302 17.7944H238.734H236.167V11.8224C236.167 8.53738 236.219 5.79839 236.282 5.73539C236.345 5.67139 237.527 5.64039 238.907 5.66539L241.417 5.71139L241.468 10.2114ZM291.794 11.6694L291.75 17.7114L289.125 17.7574L286.5 17.8034V11.8264C286.5 8.53938 286.55 5.80039 286.611 5.73939C286.672 5.67839 287.873 5.62839 289.28 5.62839H291.837L291.794 11.6694ZM220.579 13.2944C220.697 14.1954 221.232 17.6784 221.781 21.1284C221.934 22.0904 222.065 23.1404 222.071 23.4614L222.083 24.0444L220.375 24.0924L218.667 24.1394V23.5284C218.667 23.1924 218.774 22.1964 218.905 21.3144C219.036 20.4324 219.258 18.8484 219.398 17.7944C220.256 11.3354 220.299 11.1724 220.579 13.2944Z" fill="white"/>
</svg>
