<svg id="svg" version="1.1" xmlns="http://www.w3.org/2000/svg" xmlns:xlink="http://www.w3.org/1999/xlink" width="400" height="37.02770780856423" viewBox="0, 0, 400,37.02770780856423"><g id="svgg"><path id="path0" d="M56.299 0.124 L 54.514 0.178 52.578 2.297 L 50.642 4.417 50.737 8.250 C 50.790 10.358,50.833 13.213,50.833 14.593 L 50.833 17.103 51.600 18.010 C 52.022 18.509,52.530 19.104,52.729 19.333 C 52.928 19.563,53.304 20.031,53.565 20.375 L 54.040 21.000 57.603 21.000 L 61.167 21.000 61.166 24.458 C 61.165 26.360,61.117 28.760,61.057 29.792 L 60.949 31.667 58.233 31.667 L 55.516 31.667 55.617 29.662 L 55.718 27.657 53.317 27.704 L 50.917 27.750 50.871 30.216 L 50.824 32.681 52.352 34.382 C 53.193 35.318,54.011 36.222,54.171 36.392 C 54.437 36.677,54.755 36.700,58.105 36.679 L 61.750 36.656 63.750 34.661 L 65.750 32.665 65.805 26.095 L 65.860 19.525 64.073 17.679 L 62.286 15.833 59.077 15.833 C 56.306 15.833,55.855 15.797,55.768 15.570 C 55.712 15.425,55.667 13.098,55.667 10.399 L 55.667 5.491 58.208 5.537 L 60.750 5.583 60.894 7.463 L 61.037 9.343 63.227 9.296 L 65.417 9.250 65.358 6.833 L 65.299 4.417 63.618 2.333 C 62.694 1.188,61.858 0.195,61.760 0.128 C 61.590 0.010,60.139 0.009,56.299 0.124 M0.333 2.712 L 0.333 5.310 1.633 5.424 L 2.933 5.537 2.925 18.560 L 2.917 31.583 1.458 31.631 L 0.000 31.680 0.000 34.173 L 0.000 36.667 4.458 36.669 C 6.910 36.670,9.067 36.709,9.250 36.754 C 9.968 36.934,10.058 36.663,10.136 34.096 L 10.209 31.667 8.955 31.667 C 7.432 31.667,7.527 31.901,7.711 28.583 C 7.854 26.001,7.876 25.885,8.412 24.917 C 9.416 23.106,10.486 21.280,10.629 21.138 C 10.770 20.997,10.842 21.212,11.904 24.917 C 12.475 26.910,13.599 30.800,13.777 31.399 C 13.864 31.692,13.800 31.706,12.873 31.601 C 11.643 31.462,11.672 31.393,11.669 34.461 L 11.667 36.672 16.458 36.628 L 21.250 36.583 21.296 34.042 L 21.342 31.500 20.111 31.500 L 18.880 31.500 17.762 28.125 C 16.591 24.590,15.980 22.865,15.502 21.750 C 15.345 21.383,14.826 20.068,14.348 18.828 L 13.480 16.572 14.507 14.411 C 15.072 13.223,15.743 11.800,15.999 11.250 C 16.255 10.700,16.960 9.211,17.566 7.940 C 18.171 6.670,18.667 5.564,18.667 5.482 C 18.667 5.302,18.786 5.285,20.167 5.265 L 21.250 5.250 21.296 2.818 L 21.342 0.385 19.213 0.277 C 18.042 0.217,15.943 0.168,14.549 0.167 L 12.015 0.167 11.916 0.708 C 11.862 1.006,11.839 2.150,11.867 3.250 L 11.917 5.250 13.042 5.299 C 13.660 5.326,14.167 5.387,14.167 5.434 C 14.167 5.550,12.154 9.367,11.961 9.616 C 11.876 9.726,10.882 11.634,9.752 13.855 L 7.698 17.895 7.631 16.739 C 7.595 16.103,7.547 13.277,7.525 10.458 L 7.484 5.333 8.726 5.333 L 9.969 5.333 10.032 2.875 C 10.067 1.523,10.083 0.395,10.068 0.368 C 10.054 0.341,7.857 0.273,5.187 0.216 L 0.333 0.114 0.333 2.712 M122.958 0.291 L 120.667 0.343 120.667 2.838 L 120.667 5.333 121.917 5.333 C 122.803 5.333,123.168 5.394,123.172 5.542 C 123.220 7.527,123.098 26.087,123.021 28.333 L 122.917 31.417 121.917 31.500 L 120.917 31.583 120.833 34.083 C 120.781 35.656,120.812 36.629,120.917 36.706 C 121.116 36.853,129.525 36.877,129.903 36.732 C 130.125 36.647,130.164 36.311,130.147 34.607 C 130.117 31.524,130.148 31.593,128.764 31.533 L 127.613 31.484 127.717 24.236 C 127.774 20.250,127.874 16.903,127.938 16.798 C 128.200 16.375,131.411 28.050,132.257 32.500 C 132.423 33.371,132.682 34.683,132.834 35.417 L 133.109 36.750 133.673 36.750 C 134.319 36.750,134.221 37.006,135.482 32.000 C 135.840 30.579,136.402 28.479,136.732 27.333 C 137.532 24.551,138.213 21.943,138.670 19.917 C 138.876 19.000,139.100 18.145,139.168 18.017 C 139.235 17.889,139.295 20.871,139.300 24.642 L 139.310 31.500 138.333 31.500 C 137.144 31.500,137.204 31.354,137.135 34.417 L 137.083 36.750 141.831 36.750 C 146.399 36.750,146.581 36.738,146.641 36.426 C 146.675 36.248,146.650 35.105,146.585 33.885 L 146.466 31.667 145.422 31.667 L 144.378 31.667 144.254 20.852 C 144.186 14.905,144.185 9.017,144.252 7.769 L 144.374 5.500 145.539 5.500 L 146.704 5.500 146.640 3.125 C 146.605 1.819,146.518 0.656,146.445 0.542 C 146.256 0.243,139.776 0.243,139.550 0.542 C 139.359 0.793,139.309 0.969,137.908 6.250 C 137.786 6.708,137.225 8.508,136.661 10.250 C 136.097 11.992,135.576 13.642,135.504 13.917 C 135.001 15.825,133.806 19.761,133.696 19.871 C 133.622 19.944,133.430 19.572,133.267 19.044 C 133.105 18.516,132.650 17.033,132.255 15.750 C 131.490 13.265,131.486 13.250,130.578 9.417 C 130.253 8.042,129.584 5.642,129.091 4.083 C 128.599 2.525,128.142 1.063,128.076 0.833 C 127.903 0.236,127.721 0.168,126.417 0.206 C 125.775 0.224,124.219 0.263,122.958 0.291 M217.900 0.281 C 217.799 0.356,217.672 0.829,217.617 1.333 C 217.473 2.661,216.719 8.019,216.252 11.042 C 216.113 11.935,215.893 13.360,215.762 14.208 C 215.515 15.811,213.790 26.229,213.506 27.833 C 213.417 28.337,213.228 29.500,213.085 30.417 C 212.942 31.333,212.677 32.974,212.496 34.063 C 212.315 35.152,212.167 36.172,212.167 36.329 C 212.167 36.578,212.429 36.630,214.158 36.723 C 216.715 36.860,216.570 36.948,216.800 35.119 C 216.907 34.274,217.113 32.758,217.259 31.750 C 217.405 30.742,217.575 29.542,217.637 29.083 L 217.750 28.250 220.393 28.103 C 223.535 27.929,223.222 27.664,223.479 30.716 C 223.796 34.489,224.040 36.577,224.175 36.667 C 224.243 36.712,225.366 36.727,226.671 36.699 L 229.041 36.649 228.948 36.033 C 228.896 35.694,228.618 34.217,228.330 32.750 C 228.042 31.283,227.703 29.446,227.578 28.667 C 227.453 27.887,227.236 26.537,227.096 25.667 C 226.547 22.247,226.341 21.029,226.083 19.667 C 225.935 18.887,225.709 17.650,225.581 16.917 C 225.453 16.183,225.225 14.946,225.076 14.167 C 224.926 13.387,224.703 12.188,224.580 11.500 C 224.457 10.813,224.206 9.425,224.022 8.417 C 223.839 7.408,223.530 5.533,223.336 4.250 C 223.142 2.967,222.905 1.560,222.808 1.125 L 222.633 0.333 221.842 0.333 C 221.407 0.333,220.383 0.291,219.567 0.240 C 218.751 0.188,218.001 0.207,217.900 0.281 M24.505 18.489 C 24.498 31.564,24.547 36.676,24.680 36.758 C 24.781 36.821,25.873 36.818,27.106 36.752 L 29.349 36.632 29.232 29.816 L 29.114 23.000 31.974 23.000 L 34.833 23.000 34.836 29.458 C 34.838 37.546,34.555 36.667,37.162 36.667 L 39.285 36.667 39.202 29.875 L 39.119 23.083 38.688 22.500 C 38.452 22.179,38.012 21.622,37.712 21.262 C 37.018 20.428,36.985 20.567,38.247 19.016 L 39.327 17.689 39.434 11.386 L 39.541 5.083 38.728 4.083 C 38.281 3.533,37.402 2.465,36.776 1.708 L 35.637 0.333 30.076 0.333 L 24.515 0.333 24.505 18.489 M42.825 0.375 C 42.820 0.398,42.785 8.142,42.746 17.583 C 42.708 27.025,42.635 35.041,42.584 35.397 C 42.399 36.689,42.383 36.681,45.138 36.629 L 47.583 36.583 47.594 18.458 L 47.605 0.333 45.219 0.333 C 43.907 0.333,42.829 0.352,42.825 0.375 M84.643 0.375 C 84.624 0.410,84.511 18.014,84.437 32.583 L 84.417 36.583 86.917 36.583 L 89.417 36.583 89.417 18.458 L 89.417 0.333 87.042 0.333 C 85.735 0.333,84.656 0.352,84.643 0.375 M93.167 13.723 C 93.167 21.087,93.117 29.274,93.056 31.915 L 92.945 36.718 95.400 36.626 C 96.750 36.575,97.906 36.482,97.969 36.419 C 98.032 36.356,98.056 31.679,98.023 26.027 C 97.989 20.375,98.001 15.787,98.048 15.833 C 98.163 15.943,100.339 22.439,101.009 24.667 C 102.637 30.087,103.271 32.141,103.918 34.083 C 104.131 34.725,104.390 35.569,104.493 35.958 L 104.680 36.667 107.153 36.667 L 109.627 36.667 109.740 28.875 C 109.895 18.198,109.924 13.427,109.875 6.458 L 109.833 0.500 107.437 0.500 L 105.040 0.500 105.126 6.292 C 105.230 13.266,105.038 21.954,104.794 21.333 C 104.617 20.884,104.474 20.406,103.667 17.583 C 103.378 16.575,103.045 15.412,102.925 15.000 C 102.805 14.588,102.133 12.724,101.433 10.859 C 100.202 7.583,99.598 5.800,98.512 2.231 L 98.000 0.545 97.227 0.439 C 96.801 0.381,95.714 0.333,94.810 0.333 L 93.167 0.333 93.167 13.723 M153.229 0.437 C 153.125 0.479,152.178 1.385,151.124 2.450 L 149.208 4.386 149.189 18.401 L 149.171 32.417 151.097 34.542 L 153.024 36.667 156.513 36.667 L 160.002 36.667 161.922 34.748 L 163.843 32.829 163.741 29.873 C 163.685 28.247,163.610 26.823,163.575 26.708 C 163.527 26.555,162.914 26.500,161.255 26.500 L 159.000 26.500 159.000 29.000 L 159.000 31.500 156.417 31.500 L 153.833 31.500 153.833 19.190 C 153.833 12.419,153.881 6.532,153.939 6.107 L 154.045 5.333 156.523 5.333 L 159.000 5.333 159.000 7.812 L 159.000 10.292 159.521 10.396 C 159.807 10.453,160.857 10.500,161.854 10.500 L 163.667 10.500 163.660 7.292 L 163.653 4.083 161.843 2.208 L 160.033 0.333 156.725 0.346 C 154.905 0.354,153.332 0.394,153.229 0.437 M165.500 2.823 C 165.500 5.666,165.449 5.570,166.922 5.516 C 168.144 5.472,168.055 5.337,168.416 7.785 C 168.652 9.388,168.852 10.661,169.746 16.250 C 170.596 21.565,171.028 24.178,171.163 24.833 C 171.647 27.173,172.236 30.674,172.242 31.250 L 172.250 31.917 171.231 31.966 L 170.213 32.015 170.106 33.032 C 170.048 33.591,170.000 34.638,170.000 35.358 L 170.000 36.667 174.250 36.667 L 178.500 36.667 178.500 34.417 L 178.500 32.167 177.833 32.167 C 177.005 32.167,177.007 32.244,177.743 29.257 C 178.060 27.970,178.586 25.832,178.911 24.507 C 179.469 22.236,179.833 21.292,179.833 22.120 C 179.833 22.314,179.938 22.910,180.065 23.445 C 180.193 23.979,180.416 24.979,180.561 25.667 C 180.705 26.354,181.051 27.989,181.329 29.300 C 181.969 32.323,181.978 32.167,181.162 32.167 L 180.491 32.167 180.537 34.458 L 180.583 36.750 184.833 36.691 C 187.171 36.658,189.093 36.621,189.105 36.608 C 189.117 36.594,189.155 35.573,189.189 34.337 L 189.250 32.091 187.934 32.145 L 186.619 32.198 186.739 31.641 C 186.804 31.334,186.961 30.521,187.088 29.833 C 187.429 27.970,188.126 24.120,188.431 22.417 C 188.578 21.592,188.800 20.354,188.923 19.667 C 189.046 18.979,189.259 17.779,189.396 17.000 C 189.853 14.400,190.184 12.594,190.418 11.417 C 190.546 10.775,190.854 9.193,191.103 7.900 L 191.556 5.551 192.570 5.400 L 193.583 5.250 193.629 2.792 L 193.676 0.333 188.921 0.333 L 184.167 0.333 184.167 2.833 L 184.167 5.333 185.333 5.333 C 186.351 5.333,186.500 5.372,186.500 5.637 C 186.500 6.129,185.424 13.048,184.746 16.917 C 184.601 17.742,184.380 19.068,184.255 19.865 C 183.977 21.638,183.762 22.125,183.617 21.310 C 183.562 21.002,183.399 20.225,183.253 19.583 C 182.645 16.894,181.903 13.335,181.342 10.417 C 181.236 9.867,180.966 8.508,180.742 7.398 C 180.517 6.287,180.333 5.326,180.333 5.262 C 180.333 5.198,180.095 5.169,179.805 5.198 C 179.136 5.264,179.256 4.899,177.850 11.167 C 177.573 12.404,176.922 15.329,176.405 17.667 C 175.887 20.004,175.442 21.941,175.415 21.970 C 175.351 22.039,175.059 20.650,174.913 19.583 C 174.812 18.848,174.181 14.941,173.661 11.833 C 172.533 5.097,172.508 5.706,173.917 5.634 L 174.917 5.583 174.963 2.958 L 175.008 0.333 170.254 0.333 L 165.500 0.333 165.500 2.823 M197.561 0.457 L 196.040 0.512 195.938 5.381 C 195.739 14.888,195.653 30.628,195.784 33.583 L 195.917 36.583 198.333 36.583 L 200.750 36.583 200.793 28.900 L 200.837 21.216 202.210 21.109 C 202.965 21.050,203.977 21.002,204.458 21.001 L 205.333 21.000 205.373 24.125 C 205.395 25.844,205.384 29.365,205.349 31.949 L 205.286 36.649 207.659 36.699 C 208.964 36.727,210.068 36.693,210.111 36.623 C 210.211 36.461,209.992 0.625,209.890 0.458 C 209.848 0.390,208.816 0.333,207.596 0.333 L 205.378 0.333 205.302 7.998 C 205.260 12.213,205.194 15.693,205.155 15.731 C 205.116 15.768,204.183 15.825,203.083 15.858 L 201.083 15.917 200.996 8.167 C 200.948 3.904,200.891 0.398,200.871 0.375 C 200.850 0.352,200.440 0.349,199.958 0.368 C 199.477 0.387,198.398 0.427,197.561 0.457 M231.329 8.375 C 231.326 12.798,231.287 17.204,231.241 18.167 C 231.196 19.129,231.216 23.704,231.287 28.333 L 231.417 36.750 232.500 36.795 C 233.096 36.819,234.143 36.782,234.826 36.711 L 236.069 36.583 236.019 29.792 L 235.970 23.000 238.711 23.000 L 241.451 23.000 241.572 29.708 C 241.638 33.398,241.749 36.475,241.818 36.547 C 241.887 36.619,242.875 36.656,244.014 36.630 L 246.083 36.583 246.062 35.833 C 246.050 35.421,246.009 32.382,245.970 29.080 L 245.899 23.076 244.949 21.815 C 243.798 20.285,243.789 20.566,245.042 19.033 L 246.083 17.758 246.191 14.837 C 246.250 13.231,246.307 10.376,246.316 8.493 L 246.333 5.070 244.381 2.702 L 242.429 0.333 236.881 0.333 L 231.333 0.333 231.329 8.375 M264.503 0.458 C 264.525 1.317,264.323 35.310,264.292 35.917 L 264.250 36.750 271.167 36.790 C 274.971 36.812,278.174 36.772,278.284 36.702 C 278.422 36.613,278.501 35.814,278.534 34.161 L 278.583 31.750 273.873 31.706 L 269.162 31.661 269.206 26.289 L 269.250 20.917 272.917 20.833 L 276.583 20.750 276.583 18.417 L 276.583 16.083 273.122 15.983 C 271.218 15.928,269.612 15.834,269.552 15.775 C 269.493 15.715,269.410 13.342,269.366 10.500 L 269.288 5.333 273.894 5.333 L 278.500 5.333 278.499 4.458 C 278.499 3.977,278.450 2.852,278.391 1.958 L 278.283 0.333 271.392 0.333 C 267.601 0.333,264.501 0.390,264.503 0.458 M281.729 18.542 L 281.750 36.750 282.250 36.808 C 282.525 36.840,283.597 36.813,284.633 36.749 L 286.516 36.633 286.398 29.816 L 286.281 23.000 289.140 23.000 L 292.000 23.000 292.000 29.570 C 292.000 33.183,292.046 36.258,292.101 36.403 C 292.186 36.624,292.544 36.667,294.340 36.667 L 296.477 36.667 296.387 29.875 L 296.296 23.083 295.306 21.789 C 294.708 21.007,294.365 20.414,294.438 20.289 C 294.505 20.176,294.995 19.553,295.528 18.905 L 296.496 17.726 296.608 11.441 L 296.721 5.155 296.328 4.619 C 296.112 4.324,295.230 3.240,294.367 2.208 L 292.800 0.333 287.253 0.333 L 281.707 0.333 281.729 18.542 M67.500 2.894 L 67.500 5.288 68.273 5.394 C 68.699 5.452,69.775 5.500,70.664 5.500 L 72.282 5.500 72.388 7.458 C 72.446 8.535,72.445 15.548,72.386 23.042 L 72.278 36.667 74.741 36.667 L 77.203 36.667 77.083 32.375 C 77.010 29.732,77.044 25.683,77.173 21.833 C 77.289 18.396,77.391 13.296,77.400 10.500 L 77.417 5.417 79.958 5.371 L 82.500 5.325 82.500 2.912 L 82.500 0.500 75.000 0.500 L 67.500 0.500 67.500 2.894 M247.833 2.823 C 247.833 5.582,247.610 5.354,250.412 5.461 L 252.619 5.545 252.728 7.314 C 252.788 8.287,252.787 15.290,252.725 22.875 L 252.612 36.667 255.081 36.667 L 257.549 36.667 257.435 32.542 C 257.367 30.124,257.402 26.002,257.519 22.583 C 257.629 19.375,257.726 14.200,257.734 11.083 L 257.750 5.417 260.292 5.371 L 262.833 5.325 262.833 2.912 L 262.833 0.500 255.333 0.500 L 247.833 0.500 247.833 2.823 M34.583 11.750 L 34.583 17.750 31.958 17.796 L 29.333 17.842 29.333 11.865 C 29.333 8.578,29.385 5.837,29.449 5.774 C 29.512 5.710,30.693 5.679,32.074 5.704 L 34.583 5.750 34.583 11.750 M241.468 10.250 C 241.496 12.725,241.471 15.444,241.411 16.292 L 241.302 17.833 238.734 17.833 L 236.167 17.833 236.167 11.861 C 236.167 8.576,236.219 5.837,236.282 5.774 C 236.345 5.710,237.527 5.679,238.907 5.704 L 241.417 5.750 241.468 10.250 M291.794 11.708 L 291.750 17.750 289.125 17.796 L 286.500 17.842 286.500 11.865 C 286.500 8.578,286.550 5.839,286.611 5.778 C 286.672 5.717,287.873 5.667,289.280 5.667 L 291.837 5.667 291.794 11.708 M220.579 13.333 C 220.697 14.234,221.232 17.717,221.781 21.167 C 221.934 22.129,222.065 23.179,222.071 23.500 L 222.083 24.083 220.375 24.131 L 218.667 24.178 218.667 23.567 C 218.667 23.231,218.774 22.235,218.905 21.353 C 219.036 20.471,219.258 18.887,219.398 17.833 C 220.256 11.374,220.299 11.211,220.579 13.333 " stroke="none" fill="#060606" fill-rule="evenodd"></path><path id="path1" d="M0.000 15.840 L 0.000 31.680 1.458 31.631 L 2.917 31.583 2.925 18.560 L 2.933 5.537 1.633 5.424 L 0.333 5.310 0.333 2.712 L 0.333 0.114 5.187 0.216 C 7.857 0.273,10.054 0.341,10.068 0.368 C 10.083 0.395,10.067 1.523,10.032 2.875 L 9.969 5.333 8.726 5.333 L 7.484 5.333 7.525 10.458 C 7.547 13.277,7.595 16.103,7.631 16.739 L 7.698 17.895 9.752 13.855 C 10.882 11.634,11.876 9.726,11.961 9.616 C 12.154 9.367,14.167 5.550,14.167 5.434 C 14.167 5.387,13.660 5.326,13.042 5.299 L 11.917 5.250 11.867 3.250 C 11.839 2.150,11.862 1.006,11.916 0.708 L 12.015 0.167 14.549 0.167 C 15.943 0.168,18.042 0.217,19.213 0.277 L 21.342 0.385 21.296 2.818 L 21.250 5.250 20.167 5.265 C 18.786 5.285,18.667 5.302,18.667 5.482 C 18.667 5.564,18.171 6.670,17.566 7.940 C 16.960 9.211,16.255 10.700,15.999 11.250 C 15.743 11.800,15.072 13.223,14.507 14.411 L 13.480 16.572 14.348 18.828 C 14.826 20.068,15.345 21.383,15.502 21.750 C 15.980 22.865,16.591 24.590,17.762 28.125 L 18.880 31.500 20.111 31.500 L 21.342 31.500 21.296 34.042 L 21.250 36.583 16.458 36.628 L 11.667 36.672 11.669 34.461 C 11.672 31.393,11.643 31.462,12.873 31.601 C 13.800 31.706,13.864 31.692,13.777 31.399 C 13.599 30.800,12.475 26.910,11.904 24.917 C 10.842 21.212,10.770 20.997,10.629 21.138 C 10.486 21.280,9.416 23.106,8.412 24.917 C 7.876 25.885,7.854 26.001,7.711 28.583 C 7.527 31.901,7.432 31.667,8.955 31.667 L 10.209 31.667 10.136 34.079 C 10.096 35.406,10.016 36.540,9.958 36.598 C 9.900 36.656,7.636 36.691,4.926 36.677 C 1.581 36.659,0.000 36.706,0.000 36.825 C 0.000 36.947,60.486 37.000,200.000 37.000 L 400.000 37.000 400.000 18.500 L 400.000 0.000 230.792 0.003 C 137.727 0.004,61.663 0.060,61.760 0.128 C 61.858 0.195,62.694 1.188,63.618 2.333 L 65.299 4.417 65.358 6.833 L 65.417 9.250 63.227 9.296 L 61.037 9.343 60.894 7.463 L 60.750 5.583 58.208 5.537 L 55.667 5.491 55.667 10.399 C 55.667 13.098,55.712 15.425,55.768 15.570 C 55.855 15.797,56.306 15.833,59.077 15.833 L 62.286 15.833 64.073 17.679 L 65.860 19.525 65.805 26.095 L 65.750 32.665 63.750 34.661 L 61.750 36.656 58.105 36.679 C 54.755 36.700,54.437 36.677,54.171 36.392 C 54.011 36.222,53.193 35.318,52.352 34.382 L 50.824 32.681 50.871 30.216 L 50.917 27.750 53.317 27.704 L 55.718 27.657 55.617 29.662 L 55.516 31.667 58.233 31.667 L 60.949 31.667 61.057 29.792 C 61.117 28.760,61.165 26.360,61.166 24.458 L 61.167 21.000 57.603 21.000 L 54.040 21.000 53.565 20.375 C 53.304 20.031,52.928 19.563,52.729 19.333 C 52.530 19.104,52.022 18.509,51.600 18.010 L 50.833 17.103 50.833 14.593 C 50.833 13.213,50.790 10.358,50.737 8.250 L 50.642 4.417 52.578 2.297 L 54.514 0.178 56.299 0.124 C 57.280 0.095,45.015 0.055,29.042 0.035 L 0.000 0.000 0.000 15.840 M127.769 0.294 C 127.871 0.362,128.009 0.604,128.076 0.833 C 128.142 1.063,128.599 2.525,129.091 4.083 C 129.584 5.642,130.253 8.042,130.578 9.417 C 131.486 13.250,131.490 13.265,132.255 15.750 C 132.650 17.033,133.105 18.516,133.267 19.044 C 133.430 19.572,133.622 19.944,133.696 19.871 C 133.806 19.761,135.001 15.825,135.504 13.917 C 135.576 13.642,136.097 11.992,136.661 10.250 C 137.225 8.508,137.786 6.708,137.908 6.250 C 139.309 0.969,139.359 0.793,139.550 0.542 C 139.776 0.243,146.256 0.243,146.445 0.542 C 146.518 0.656,146.605 1.819,146.640 3.125 L 146.704 5.500 145.539 5.500 L 144.374 5.500 144.252 7.769 C 144.185 9.017,144.186 14.905,144.254 20.852 L 144.378 31.667 145.422 31.667 L 146.466 31.667 146.585 33.885 C 146.650 35.105,146.675 36.248,146.641 36.426 C 146.581 36.738,146.399 36.750,141.831 36.750 L 137.083 36.750 137.135 34.417 C 137.204 31.354,137.144 31.500,138.333 31.500 L 139.310 31.500 139.300 24.642 C 139.295 20.871,139.235 17.889,139.168 18.017 C 139.100 18.145,138.876 19.000,138.670 19.917 C 138.213 21.943,137.532 24.551,136.732 27.333 C 136.402 28.479,135.840 30.579,135.482 32.000 C 134.221 37.006,134.319 36.750,133.673 36.750 L 133.109 36.750 132.834 35.417 C 132.682 34.683,132.423 33.371,132.257 32.500 C 131.411 28.050,128.200 16.375,127.938 16.798 C 127.874 16.903,127.774 20.250,127.717 24.236 L 127.613 31.484 128.764 31.533 C 130.148 31.593,130.117 31.524,130.147 34.607 C 130.164 36.311,130.125 36.647,129.903 36.732 C 129.525 36.877,121.116 36.853,120.917 36.706 C 120.812 36.629,120.781 35.656,120.833 34.083 L 120.917 31.583 121.917 31.500 L 122.917 31.417 123.021 28.333 C 123.098 26.087,123.220 7.527,123.172 5.542 C 123.168 5.394,122.803 5.333,121.917 5.333 L 120.667 5.333 120.667 2.838 L 120.667 0.343 122.958 0.291 C 124.219 0.263,125.775 0.224,126.417 0.206 C 127.058 0.187,127.667 0.227,127.769 0.294 M221.842 0.333 L 222.633 0.333 222.808 1.125 C 222.905 1.560,223.142 2.967,223.336 4.250 C 223.530 5.533,223.839 7.408,224.022 8.417 C 224.206 9.425,224.457 10.813,224.580 11.500 C 224.703 12.188,224.926 13.387,225.076 14.167 C 225.225 14.946,225.453 16.183,225.581 16.917 C 225.709 17.650,225.935 18.887,226.083 19.667 C 226.341 21.029,226.547 22.247,227.096 25.667 C 227.236 26.537,227.453 27.887,227.578 28.667 C 227.703 29.446,228.042 31.283,228.330 32.750 C 228.618 34.217,228.896 35.694,228.948 36.033 L 229.041 36.649 226.671 36.699 C 225.366 36.727,224.243 36.712,224.175 36.667 C 224.040 36.577,223.796 34.489,223.479 30.716 C 223.222 27.664,223.535 27.929,220.393 28.103 L 217.750 28.250 217.637 29.083 C 217.575 29.542,217.405 30.742,217.259 31.750 C 217.113 32.758,216.907 34.274,216.800 35.119 C 216.570 36.948,216.715 36.860,214.158 36.723 C 212.429 36.630,212.167 36.578,212.167 36.329 C 212.167 36.172,212.315 35.152,212.496 34.063 C 212.677 32.974,212.942 31.333,213.085 30.417 C 213.228 29.500,213.417 28.337,213.506 27.833 C 213.790 26.229,215.515 15.811,215.762 14.208 C 215.893 13.360,216.113 11.935,216.252 11.042 C 216.719 8.019,217.473 2.661,217.617 1.333 C 217.745 0.159,217.799 0.128,219.567 0.240 C 220.383 0.291,221.407 0.333,221.842 0.333 M36.776 1.708 C 37.402 2.465,38.281 3.533,38.728 4.083 L 39.541 5.083 39.434 11.386 L 39.327 17.689 38.247 19.016 C 36.985 20.567,37.018 20.428,37.712 21.262 C 38.012 21.622,38.452 22.179,38.688 22.500 L 39.119 23.083 39.202 29.875 L 39.285 36.667 37.162 36.667 C 34.555 36.667,34.838 37.546,34.836 29.458 L 34.833 23.000 31.974 23.000 L 29.114 23.000 29.232 29.816 L 29.349 36.632 27.106 36.752 C 25.873 36.818,24.781 36.821,24.680 36.758 C 24.547 36.676,24.498 31.564,24.505 18.489 L 24.515 0.333 30.076 0.333 L 35.637 0.333 36.776 1.708 M47.594 18.458 L 47.583 36.583 45.138 36.629 C 42.383 36.681,42.399 36.689,42.584 35.397 C 42.635 35.041,42.708 27.025,42.746 17.583 C 42.785 8.142,42.820 0.398,42.825 0.375 C 42.829 0.352,43.907 0.333,45.219 0.333 L 47.605 0.333 47.594 18.458 M89.417 18.458 L 89.417 36.583 86.917 36.583 L 84.417 36.583 84.437 32.583 C 84.511 18.014,84.624 0.410,84.643 0.375 C 84.656 0.352,85.735 0.333,87.042 0.333 L 89.417 0.333 89.417 18.458 M97.227 0.439 L 98.000 0.545 98.512 2.231 C 99.598 5.800,100.202 7.583,101.433 10.859 C 102.133 12.724,102.805 14.588,102.925 15.000 C 103.045 15.412,103.378 16.575,103.667 17.583 C 104.474 20.406,104.617 20.884,104.794 21.333 C 105.038 21.954,105.230 13.266,105.126 6.292 L 105.040 0.500 107.437 0.500 L 109.833 0.500 109.875 6.458 C 109.924 13.427,109.895 18.198,109.740 28.875 L 109.627 36.667 107.153 36.667 L 104.680 36.667 104.493 35.958 C 104.390 35.569,104.131 34.725,103.918 34.083 C 103.271 32.141,102.637 30.087,101.009 24.667 C 100.339 22.439,98.163 15.943,98.048 15.833 C 98.001 15.787,97.989 20.375,98.023 26.027 C 98.056 31.679,98.032 36.356,97.969 36.419 C 97.906 36.482,96.750 36.575,95.400 36.626 L 92.945 36.718 93.056 31.915 C 93.117 29.274,93.167 21.087,93.167 13.723 L 93.167 0.333 94.810 0.333 C 95.714 0.333,96.801 0.381,97.227 0.439 M161.843 2.208 L 163.653 4.083 163.660 7.292 L 163.667 10.500 161.854 10.500 C 160.857 10.500,159.807 10.453,159.521 10.396 L 159.000 10.292 159.000 7.812 L 159.000 5.333 156.523 5.333 L 154.045 5.333 153.939 6.107 C 153.881 6.532,153.833 12.419,153.833 19.190 L 153.833 31.500 156.417 31.500 L 159.000 31.500 159.000 29.000 L 159.000 26.500 161.255 26.500 C 162.914 26.500,163.527 26.555,163.575 26.708 C 163.610 26.823,163.685 28.247,163.741 29.873 L 163.843 32.829 161.922 34.748 L 160.002 36.667 156.513 36.667 L 153.024 36.667 151.097 34.542 L 149.171 32.417 149.189 18.401 L 149.208 4.386 151.124 2.450 C 153.442 0.109,152.768 0.362,156.725 0.346 L 160.033 0.333 161.843 2.208 M174.963 2.958 L 174.917 5.583 173.917 5.634 C 172.508 5.706,172.533 5.097,173.661 11.833 C 174.181 14.941,174.812 18.848,174.913 19.583 C 175.059 20.650,175.351 22.039,175.415 21.970 C 175.442 21.941,175.887 20.004,176.405 17.667 C 176.922 15.329,177.573 12.404,177.850 11.167 C 179.256 4.899,179.136 5.264,179.805 5.198 C 180.095 5.169,180.333 5.198,180.333 5.262 C 180.333 5.326,180.517 6.287,180.742 7.398 C 180.966 8.508,181.236 9.867,181.342 10.417 C 181.903 13.335,182.645 16.894,183.253 19.583 C 183.399 20.225,183.562 21.002,183.617 21.310 C 183.762 22.125,183.977 21.638,184.255 19.865 C 184.380 19.068,184.601 17.742,184.746 16.917 C 185.424 13.048,186.500 6.129,186.500 5.637 C 186.500 5.372,186.351 5.333,185.333 5.333 L 184.167 5.333 184.167 2.833 L 184.167 0.333 188.921 0.333 L 193.676 0.333 193.629 2.792 L 193.583 5.250 192.570 5.400 L 191.556 5.551 191.103 7.900 C 190.854 9.193,190.546 10.775,190.418 11.417 C 190.184 12.594,189.853 14.400,189.396 17.000 C 189.259 17.779,189.046 18.979,188.923 19.667 C 188.800 20.354,188.578 21.592,188.431 22.417 C 188.126 24.120,187.429 27.970,187.088 29.833 C 186.961 30.521,186.804 31.334,186.739 31.641 L 186.619 32.198 187.934 32.145 L 189.250 32.091 189.189 34.337 C 189.155 35.573,189.117 36.594,189.105 36.608 C 189.093 36.621,187.171 36.658,184.833 36.691 L 180.583 36.750 180.537 34.458 L 180.491 32.167 181.162 32.167 C 181.978 32.167,181.969 32.323,181.329 29.300 C 181.051 27.989,180.705 26.354,180.561 25.667 C 180.416 24.979,180.193 23.979,180.065 23.445 C 179.938 22.910,179.833 22.314,179.833 22.120 C 179.833 21.292,179.469 22.236,178.911 24.507 C 178.586 25.832,178.060 27.970,177.743 29.257 C 177.007 32.244,177.005 32.167,177.833 32.167 L 178.500 32.167 178.500 34.417 L 178.500 36.667 174.250 36.667 L 170.000 36.667 170.000 35.358 C 170.000 34.638,170.048 33.591,170.106 33.032 L 170.213 32.015 171.231 31.966 L 172.250 31.917 172.242 31.250 C 172.236 30.674,171.647 27.173,171.163 24.833 C 171.028 24.178,170.596 21.565,169.746 16.250 C 168.852 10.661,168.652 9.388,168.416 7.785 C 168.055 5.337,168.144 5.472,166.922 5.516 C 165.449 5.570,165.500 5.666,165.500 2.823 L 165.500 0.333 170.254 0.333 L 175.008 0.333 174.963 2.958 M200.871 0.375 C 200.891 0.398,200.948 3.904,200.996 8.167 L 201.083 15.917 203.083 15.858 C 204.183 15.825,205.116 15.768,205.155 15.731 C 205.194 15.693,205.260 12.213,205.302 7.998 L 205.378 0.333 207.596 0.333 C 208.816 0.333,209.848 0.390,209.890 0.458 C 209.992 0.625,210.211 36.461,210.111 36.623 C 210.068 36.693,208.964 36.727,207.659 36.699 L 205.286 36.649 205.349 31.949 C 205.384 29.365,205.395 25.844,205.373 24.125 L 205.333 21.000 204.458 21.001 C 203.977 21.002,202.965 21.050,202.210 21.109 L 200.837 21.216 200.793 28.900 L 200.750 36.583 198.333 36.583 L 195.917 36.583 195.784 33.583 C 195.653 30.628,195.739 14.888,195.938 5.381 L 196.040 0.512 197.561 0.457 C 198.398 0.427,199.477 0.387,199.958 0.368 C 200.440 0.349,200.850 0.352,200.871 0.375 M244.381 2.702 L 246.333 5.070 246.316 8.493 C 246.307 10.376,246.250 13.231,246.191 14.837 L 246.083 17.758 245.042 19.033 C 243.789 20.566,243.798 20.285,244.949 21.815 L 245.899 23.076 245.970 29.080 C 246.009 32.382,246.050 35.421,246.062 35.833 L 246.083 36.583 244.014 36.630 C 242.875 36.656,241.887 36.619,241.818 36.547 C 241.749 36.475,241.638 33.398,241.572 29.708 L 241.451 23.000 238.711 23.000 L 235.970 23.000 236.019 29.792 L 236.069 36.583 234.826 36.711 C 234.143 36.782,233.096 36.819,232.500 36.795 L 231.417 36.750 231.287 28.333 C 231.216 23.704,231.196 19.129,231.241 18.167 C 231.287 17.204,231.326 12.798,231.329 8.375 L 231.333 0.333 236.881 0.333 L 242.429 0.333 244.381 2.702 M278.391 1.958 C 278.450 2.852,278.499 3.977,278.499 4.458 L 278.500 5.333 273.894 5.333 L 269.288 5.333 269.366 10.500 C 269.410 13.342,269.493 15.715,269.552 15.775 C 269.612 15.834,271.218 15.928,273.122 15.983 L 276.583 16.083 276.583 18.417 L 276.583 20.750 272.917 20.833 L 269.250 20.917 269.206 26.289 L 269.162 31.661 273.873 31.706 L 278.583 31.750 278.534 34.161 C 278.501 35.814,278.422 36.613,278.284 36.702 C 278.174 36.772,274.971 36.812,271.167 36.790 L 264.250 36.750 264.292 35.917 C 264.323 35.310,264.525 1.317,264.503 0.458 C 264.501 0.390,267.601 0.333,271.392 0.333 L 278.283 0.333 278.391 1.958 M294.367 2.208 C 295.230 3.240,296.112 4.324,296.328 4.619 L 296.721 5.155 296.608 11.441 L 296.496 17.726 295.528 18.905 C 294.995 19.553,294.505 20.176,294.438 20.289 C 294.365 20.414,294.708 21.007,295.306 21.789 L 296.296 23.083 296.387 29.875 L 296.477 36.667 294.340 36.667 C 292.544 36.667,292.186 36.624,292.101 36.403 C 292.046 36.258,292.000 33.183,292.000 29.570 L 292.000 23.000 289.140 23.000 L 286.281 23.000 286.398 29.816 L 286.516 36.633 284.633 36.749 C 283.597 36.813,282.525 36.840,282.250 36.808 L 281.750 36.750 281.729 18.542 L 281.707 0.333 287.253 0.333 L 292.800 0.333 294.367 2.208 M82.500 2.912 L 82.500 5.325 79.958 5.371 L 77.417 5.417 77.400 10.500 C 77.391 13.296,77.289 18.396,77.173 21.833 C 77.044 25.683,77.010 29.732,77.083 32.375 L 77.203 36.667 74.741 36.667 L 72.278 36.667 72.386 23.042 C 72.445 15.548,72.446 8.535,72.388 7.458 L 72.282 5.500 70.664 5.500 C 69.775 5.500,68.699 5.452,68.273 5.394 L 67.500 5.288 67.500 2.894 L 67.500 0.500 75.000 0.500 L 82.500 0.500 82.500 2.912 M262.833 2.912 L 262.833 5.325 260.292 5.371 L 257.750 5.417 257.734 11.083 C 257.726 14.200,257.629 19.375,257.519 22.583 C 257.402 26.002,257.367 30.124,257.435 32.542 L 257.549 36.667 255.081 36.667 L 252.612 36.667 252.725 22.875 C 252.787 15.290,252.788 8.287,252.728 7.314 L 252.619 5.545 250.412 5.461 C 247.610 5.354,247.833 5.582,247.833 2.823 L 247.833 0.500 255.333 0.500 L 262.833 0.500 262.833 2.912 M29.449 5.774 C 29.385 5.837,29.333 8.578,29.333 11.865 L 29.333 17.842 31.958 17.796 L 34.583 17.750 34.583 11.750 L 34.583 5.750 32.074 5.704 C 30.693 5.679,29.512 5.710,29.449 5.774 M236.282 5.774 C 236.219 5.837,236.167 8.576,236.167 11.861 L 236.167 17.833 238.734 17.833 L 241.302 17.833 241.411 16.292 C 241.471 15.444,241.496 12.725,241.468 10.250 L 241.417 5.750 238.907 5.704 C 237.527 5.679,236.345 5.710,236.282 5.774 M286.611 5.778 C 286.550 5.839,286.500 8.578,286.500 11.865 L 286.500 17.842 289.125 17.796 L 291.750 17.750 291.794 11.708 L 291.837 5.667 289.280 5.667 C 287.873 5.667,286.672 5.717,286.611 5.778 M219.939 13.853 C 219.782 14.988,219.538 16.779,219.398 17.833 C 219.258 18.887,219.036 20.471,218.905 21.353 C 218.774 22.235,218.667 23.231,218.667 23.567 L 218.667 24.178 220.375 24.131 L 222.083 24.083 222.071 23.500 C 222.065 23.179,221.934 22.129,221.781 21.167 C 221.232 17.717,220.697 14.234,220.579 13.333 C 220.354 11.631,220.234 11.729,219.939 13.853 " stroke="none" fill="white" fill-rule="evenodd"></path></g></svg>